<svg width="160" height="36" viewBox="0 0 160 36" fill="none" xmlns="http://www.w3.org/2000/svg">
<path d="M8.95958 23.6442C11.9353 20.1509 22.4151 20.9919 23.4501 11.9353H15.2345C12.4852 15.4933 1.48788 14.911 0.355804 23.6442H8.95958Z" fill="#4BC4E0"/>
<path d="M12.4205 35.9677C5.56334 35.9677 0.226415 32.2156 0 25.0997H8.24798C8.47439 27.8167 9.99461 29.1105 12.1941 29.1105C14.4582 29.1105 15.9137 27.8491 15.9137 25.8113C15.9137 19.31 0 22.8032 0.0970351 10.3504C0.0970351 3.68733 5.04582 0 11.6765 0C18.6307 0 23.2884 3.81671 23.6119 10.5121H15.2345C15.1051 8.24798 13.6496 6.92183 11.5795 6.85714C9.7035 6.79245 8.28032 7.85984 8.28032 10.0593C8.28032 16.1725 24 13.4232 24 25.1644C24 31.0512 19.8275 35.9677 12.4205 35.9677Z" fill="#E84F69"/>
<path d="M36.112 28.28C34.3013 28.28 32.9107 27.8693 31.94 27.048C30.9693 26.208 30.4467 25.0787 30.372 23.66H33.116C33.2653 25.284 34.2547 26.096 36.084 26.096C36.7933 26.096 37.372 25.956 37.82 25.676C38.2867 25.3773 38.52 24.9293 38.52 24.332C38.52 23.6973 38.2773 23.212 37.792 22.876C37.3253 22.54 36.6533 22.2507 35.776 22.008L34.684 21.728C34.1427 21.5787 33.6853 21.4293 33.312 21.28C32.9387 21.1307 32.5373 20.916 32.108 20.636C31.6787 20.3373 31.352 19.9547 31.128 19.488C30.904 19.0027 30.792 18.4427 30.792 17.808C30.792 16.5573 31.268 15.568 32.22 14.84C33.172 14.0933 34.3387 13.72 35.72 13.72C37.3813 13.72 38.6507 14.1213 39.528 14.924C40.424 15.708 40.9093 16.6693 40.984 17.808H38.24C38.1653 17.2293 37.904 16.772 37.456 16.436C37.0267 16.0813 36.4573 15.904 35.748 15.904C35.1133 15.904 34.5813 16.0627 34.152 16.38C33.7413 16.6787 33.536 17.108 33.536 17.668C33.536 18.228 33.7413 18.6387 34.152 18.9C34.5627 19.1613 35.1973 19.4133 36.056 19.656L37.12 19.936C38.3893 20.272 39.3973 20.776 40.144 21.448C40.8907 22.1013 41.264 23.0347 41.264 24.248C41.264 25.5733 40.7787 26.5813 39.808 27.272C38.8373 27.944 37.6053 28.28 36.112 28.28ZM49.1882 28.28C46.6309 28.28 45.3522 27.0573 45.3522 24.612V16.296H42.3282V14H43.3082C44.1296 14 44.7082 13.8413 45.0442 13.524C45.3989 13.2067 45.5762 12.6653 45.5762 11.9V10.192H48.1802V14H51.7362V16.296H48.1802V24.22C48.1802 25.396 48.7869 25.984 50.0002 25.984C50.4669 25.984 50.9242 25.9093 51.3722 25.76V27.972C50.5882 28.1773 49.8602 28.28 49.1882 28.28ZM66.4062 25.844H66.7703V28H65.4823C64.0636 28 63.1863 27.4213 62.8503 26.264C61.7863 27.608 60.2556 28.28 58.2583 28.28C56.8396 28.28 55.6916 27.944 54.8143 27.272C53.9369 26.5813 53.4983 25.5733 53.4983 24.248C53.4983 22.9787 53.9276 21.98 54.7863 21.252C55.6449 20.524 56.7836 20.0947 58.2023 19.964L62.4863 19.544V18.844C62.4863 17.948 62.2436 17.2573 61.7583 16.772C61.2916 16.2867 60.6196 16.044 59.7423 16.044C58.1183 16.044 57.1663 16.8653 56.8863 18.508H54.0583C54.1889 17.0893 54.7583 15.9413 55.7663 15.064C56.7743 14.168 58.0996 13.72 59.7423 13.72C61.4036 13.72 62.7476 14.168 63.7743 15.064C64.8196 15.96 65.3423 17.2573 65.3423 18.956V24.696C65.3423 25.4613 65.6969 25.844 66.4062 25.844ZM62.4863 22.624V21.588L59.1543 21.924C58.2956 21.9987 57.6143 22.2227 57.1103 22.596C56.6063 22.9693 56.3543 23.4827 56.3543 24.136C56.3543 25.4053 57.1289 26.04 58.6783 26.04C59.6863 26.04 60.5729 25.76 61.3383 25.2C62.1036 24.64 62.4863 23.7813 62.4863 22.624ZM74.1531 28.28C71.5957 28.28 70.3171 27.0573 70.3171 24.612V16.296H67.2931V14H68.2731C69.0944 14 69.6731 13.8413 70.0091 13.524C70.3637 13.2067 70.5411 12.6653 70.5411 11.9V10.192H73.1451V14H76.7011V16.296H73.1451V24.22C73.1451 25.396 73.7517 25.984 74.9651 25.984C75.4317 25.984 75.8891 25.9093 76.3371 25.76V27.972C75.5531 28.1773 74.8251 28.28 74.1531 28.28ZM80.5918 11.928C80.0878 11.928 79.6491 11.7507 79.2758 11.396C78.9211 11.0227 78.7438 10.5933 78.7438 10.108C78.7438 9.604 78.9211 9.184 79.2758 8.848C79.6491 8.49333 80.0878 8.316 80.5918 8.316C81.0771 8.316 81.4971 8.49333 81.8518 8.848C82.2064 9.184 82.3838 9.604 82.3838 10.108C82.3838 10.5933 82.2064 11.0227 81.8518 11.396C81.4971 11.7507 81.0771 11.928 80.5918 11.928ZM79.1638 28V14H82.0198V28H79.1638ZM92.1722 28.28C90.1188 28.28 88.4108 27.5893 87.0482 26.208C85.7042 24.8267 85.0322 23.0907 85.0322 21C85.0322 18.872 85.7042 17.1267 87.0482 15.764C88.3922 14.4013 90.1002 13.72 92.1722 13.72C94.2442 13.72 95.9615 14.4107 97.3242 15.792C98.6868 17.1547 99.3682 18.8907 99.3682 21C99.3682 23.1093 98.6868 24.8547 97.3242 26.236C95.9615 27.5987 94.2442 28.28 92.1722 28.28ZM89.0642 24.416C89.8668 25.3307 90.9028 25.788 92.1722 25.788C93.4415 25.788 94.4868 25.3213 95.3082 24.388C96.1295 23.4547 96.5402 22.3253 96.5402 21C96.5402 19.656 96.1295 18.5267 95.3082 17.612C94.5055 16.6787 93.4602 16.212 92.1722 16.212C90.9028 16.212 89.8668 16.6787 89.0642 17.612C88.2615 18.5267 87.8602 19.656 87.8602 21C87.8602 22.344 88.2615 23.4827 89.0642 24.416ZM102.406 28V14H104.982L105.262 15.68H105.458C106.429 14.3733 107.791 13.72 109.546 13.72C111.133 13.72 112.402 14.2147 113.354 15.204C114.306 16.1747 114.782 17.5467 114.782 19.32V28H111.926V19.936C111.926 18.704 111.627 17.78 111.03 17.164C110.451 16.5293 109.686 16.212 108.734 16.212C107.745 16.212 106.914 16.548 106.242 17.22C105.589 17.8733 105.262 18.8533 105.262 20.16V28H102.406ZM130.979 20.804C130.979 20.9347 130.96 21.2427 130.923 21.728H120.563C120.637 22.9973 121.039 24.024 121.767 24.808C122.495 25.5733 123.465 25.956 124.679 25.956C126.564 25.956 127.731 25.2373 128.179 23.8H130.923C130.624 25.2 129.924 26.3013 128.823 27.104C127.721 27.888 126.34 28.28 124.679 28.28C122.644 28.28 120.983 27.6267 119.695 26.32C118.407 25.0133 117.763 23.2867 117.763 21.14C117.763 18.9 118.407 17.108 119.695 15.764C121.001 14.4013 122.625 13.72 124.567 13.72C126.396 13.72 127.917 14.3267 129.131 15.54C130.363 16.7533 130.979 18.508 130.979 20.804ZM124.567 16.044C123.484 16.044 122.588 16.3893 121.879 17.08C121.169 17.7707 120.74 18.648 120.591 19.712H128.207C128.188 18.6293 127.843 17.752 127.171 17.08C126.499 16.3893 125.631 16.044 124.567 16.044ZM134.097 28V14H136.673L136.953 15.96H137.149C137.579 15.2133 138.092 14.6533 138.689 14.28C139.287 13.9067 140.127 13.72 141.209 13.72H142.105V16.576C141.657 16.52 141.2 16.492 140.733 16.492C139.483 16.492 138.54 16.912 137.905 17.752C137.271 18.592 136.953 19.656 136.953 20.944V28H134.097ZM150.469 28.28C148.416 28.28 146.708 27.5893 145.345 26.208C144.001 24.8267 143.329 23.0907 143.329 21C143.329 18.872 144.001 17.1267 145.345 15.764C146.689 14.4013 148.397 13.72 150.469 13.72C152.541 13.72 154.258 14.4107 155.621 15.792C156.984 17.1547 157.665 18.8907 157.665 21C157.665 23.1093 156.984 24.8547 155.621 26.236C154.258 27.5987 152.541 28.28 150.469 28.28ZM147.361 24.416C148.164 25.3307 149.2 25.788 150.469 25.788C151.738 25.788 152.784 25.3213 153.605 24.388C154.426 23.4547 154.837 22.3253 154.837 21C154.837 19.656 154.426 18.5267 153.605 17.612C152.802 16.6787 151.757 16.212 150.469 16.212C149.2 16.212 148.164 16.6787 147.361 17.612C146.558 18.5267 146.157 19.656 146.157 21C146.157 22.344 146.558 23.4827 147.361 24.416Z" fill="#01213A"/>
</svg>
